700 0 2 0           
30 Autodesk Translation Framework 20 ASM 228.3.1.65535 NT 24 Thu Sep 28 14:27:41 2023 
1 9.999999999999999547e-07 1.000000000000000036e-10 
body $2 -1 $-1 $3 $-1 $4 #
body $5 -1 $-1 $6 $-1 $7 #
rgb_color-st-attrib $-1 -1 $8 $-1 $0 0.7490196078431372584 0.7490196078431372584 0.7490196078431372584 #
lump $-1 -1 $-1 $-1 $9 $0 #
transform $-1 -1 1 0 0 0 1 0 0 0 1 0 0 0 1 no_rotate no_reflect no_shear #
rgb_color-st-attrib $-1 -1 $10 $-1 $1 0.7490196078431372584 0.7490196078431372584 0.7490196078431372584 #
lump $-1 -1 $-1 $-1 $11 $1 #
transform $-1 -1 1 0 0 0 1 0 0 0 1 0 0 0 1 no_rotate no_reflect no_shear #
DXID-attrib $-1 -1 $-1 $2 $0 @10 ASM ENTITY @98 MARCADOR.IPT|:|745DF0883D731E3A29449C6DC2D3235E8326B4D7|:|DA4B9237BACCCDF19C0760CAB7AEC4A8359010B0 #
shell $-1 -1 $-1 $-1 $-1 $12 $-1 $3 #
DXID-attrib $-1 -1 $-1 $5 $1 @10 ASM ENTITY @105 SOPORTEMARCADOR.IPT|:|9D63326BAF42A3200045D0C84BE3210489166E31|:|DA4B9237BACCCDF19C0760CAB7AEC4A8359010B0 #
shell $-1 -1 $-1 $-1 $-1 $13 $-1 $6 #
face $14 -1 $-1 $15 $16 $9 $-1 $17 forward single #
face $18 -1 $-1 $19 $20 $11 $-1 $21 forward single #
DXID-attrib $-1 -1 $-1 $-1 $12 @10 ASM ENTITY @36 2335ea8f-4e69-4b7f-888a-d4abb416e165 #
face $22 -1 $-1 $23 $24 $9 $-1 $25 forward single #
loop $-1 -1 $-1 $26 $27 $12 #
cone-surface $-1 -1 $-1 21.37971557832050706 -2.844946500601963635e-15 124.2503922679254629 0.1736481776669319688 -2.775557561562891351e-17 0.9848077530122079093 4.470171758886213098 -2.096732329916852322 -0.7882118894926616326 1 I I -0.7071067811865474617 0.7071067811865474617 5 forward I I I I #
DXID-attrib $-1 -1 $-1 $-1 $13 @10 ASM ENTITY @36 ba7f3fec-78a5-4c26-a3c7-4c44b1a5b5cd #
face $28 -1 $-1 $29 $30 $11 $-1 $31 forward single #
loop $-1 -1 $-1 $-1 $32 $13 #
spline-surface $-1 -1 $-1 forward { rbblnsur @11 blendsupsur plane 9.992007221626371393e-16 2.164934898019054859e-15 3.000000000000000444 3.330669073875456309e-16 7.216449660063515541e-16 1 10 1.665334536937729289e-15 -3.330669073875457394e-15 forward_v I I I I null_curve nullbs 0 0 0 
	@11 blendsupsur cone 9.992007221626371393e-16 2.164934898019054859e-15 3.000000000000000444 0.1736481776669306087 7.39599788199790193e-16 0.9848077530122080203 -1.582067810090845309e-15 9.5 -6.855627177060339271e-15 0.9848077530122081313 I I 0 1 9.5 forward I I I I null_curve nubs 3 periodic 18 
	-3.141592653589793116 3 -2.754927630439996111 3 -2.369742900161643906 3 -1.983481817761101329 3 -1.594314667125168672 3 
	-1.202076185903043548 3 -0.8082718448860108928 3 -0.4153083170091020904 3 -0.02521872711073092077 3 0.3616196552989605628 3 
	0.74682324489979246 3 1.132944168639231641 3 1.521897692372284006 3 1.913967055352492785 3 2.307738945117721485 3 
	2.700830325649768326 3 2.920555055118569499 3 3.141592653589793116 3 
	0.5499914174335227557 -1.570796326794896558 
	0.5499914174335227557 -1.700390474343806524 
	0.5441829416792282048 -1.829999349547218879 
	0.5330048157865512337 -1.959393106954861796 
	0.5218694837828592448 -2.088291498489637021 
	0.5054131992092267822 -2.217007011245237358 
	0.4848569447896440288 -2.345418328253916496 
	0.4642432484043508834 -2.474188475150467248 
	0.4395176275491170514 -2.602687512459723518 
	0.4124962712758355465 -2.73095160023500183 
	0.3852716175213402594 -2.860180693826834375 
	0.355728520569095652 -2.989212500390133975 
	0.3260434446161459832 -3.118207945976445572 
	0.2961240922563136979 -3.248221431386676628 
	0.2660730104636991888 -3.378243858719095716 
	0.2381368513467938541 -3.50844746339172131 
	0.2100891679647297339 -3.639170855386268055 
	0.1841866922262056228 -3.770121611597489153 
	0.1624025885671831482 -3.90135351308245637 
	0.140664996230395023 -4.032305220837494097 
	0.1230405663522254334 -4.163575631746503802 
	0.1108875711871752934 -4.295047576538301826 
	0.0988234569280619507 -4.425558001523691942 
	0.09215815636287331969 -4.556299818145569169 
	0.09140378579059627029 -4.687040837882189948 
	0.09065570253107337051 -4.816692194645348479 
	0.09571971529675092627 -4.946372659422199725 
	0.1062127705438320469 -5.075848490572672844 
	0.1166614817649816171 -5.204777152240202653 
	0.1324861104676063328 -5.333533346194168523 
	0.1525113460866278636 -5.461986479124267824 
	0.1725842703377465648 -5.590745513783294207 
	0.1968669681927344428 -5.719234464235000814 
	0.223575285158189363 -5.847479273565609148 
	0.2504795355056871342 -5.976664892429595533 
	0.279833186743687734 -6.105643567021362905 
	0.3094750197963738181 -6.234570882622413102 
	0.3393543084347473426 -6.364531012597080206 
	0.3695139664767079779 -6.494484684334285163 
	0.3977019062702771279 -6.624607684932723117 
	0.4260122497174964051 -6.755295733236449607 
	0.4523203843074660169 -6.886199585563113068 
	0.4746244896402673774 -7.017383518100974271 
	0.496890049434366432 -7.148340741014158617 
	0.515152864353342399 -7.279616274687791488 
	0.5280059517901602995 -7.411103376915840535 
	0.5351903910828030853 -7.484600200800890057 
	0.5406978836861239257 -7.558167138619885428 
	0.5443926234229063965 -7.631771365921867556 
	0.5481094394607232134 -7.705815383085944603 
	0.5499914174335227557 -7.779898959216907883 
	0.5499914174335227557 -7.85398163397448279 
	0 0 0 
	intcurve forward { offintcur full nubs 5 periodic 18 
	-3.141592653589793116 5 -2.754927630439996111 2 -2.369742900161643906 2 -1.983481817761101329 2 -1.594314667125168672 2 
	-1.202076185903043548 2 -0.8082718448860108928 2 -0.4153083170091020904 2 -0.02521872711073092077 2 0.3616196552989605628 2 
	0.74682324489979246 2 1.132944168639231641 2 1.521897692372284006 2 1.913967055352492785 2 2.307738945117721485 2 
	2.700830325649768326 2 2.920555055118569499 2 3.141592653589793116 5 
	13.07526077778263307 7.269951610279256204e-15 5.999999999999996447 
	13.07526077778263307 -0.9684122192808932716 5.999999999999997335 
	12.9811221145810336 -1.936841829200803833 6.000000000000529354 
	12.60519894895249138 -3.846005192886367219 5.99999999998671818 
	11.86426221751855792 -5.6572001110132355 6.000000000025885072 
	10.25984614058077682 -8.096132810603622332 5.999999999929373828 
	8.891409126323978285 -9.493260972247256291 6.000000000070084383 
	6.482031083839586927 -11.15275523770361055 5.999999999742785306 
	4.67900948264265093 -11.93602624142903856 5.999999999775695869 
	1.804450443722560582 -12.56945682319145874 6.000000000010098589 
	-0.1762819824293319904 -12.61427892023247743 6.000000000128774325 
	-3.095592155328369621 -12.10823638988679107 5.99999999952932761 
	-4.956102706199356334 -11.39272583533064598 5.999999999587690702 
	-7.469925572174399342 -9.806000461792372391 6.000000000018111734 
	-8.917093873709994512 -8.432163534693367879 5.999999999774665582 
	-10.62784243181399191 -6.007545250677788218 6.000000000073607787 
	-11.43429694328279567 -4.192691691899797846 5.999999999952743579 
	-12.08221700742432247 -1.315064402610846228 6.000000000018399504 
	-12.13375136797278842 0.6543996860871683641 5.999999999988316901 
	-11.64055334504831229 3.542363794784101572 6.000000000013417711 
	-10.94525706286005651 5.372097350880448374 5.999999999976527221 
	-9.402455825830170255 7.850637728668176329 6.000000000061925576 
	-8.069665895494267716 9.281398266330079139 5.999999999932109418 
	-5.703280184328621161 11.0002017128118581 6.00000000023762059 
	-3.921289911000873651 11.82805513215073745 6.000000000200385486 
	-1.064853810569069692 12.53320974633325413 6.000000000001495692 
	0.9131275064756417814 12.62790122016168226 5.999999999860191835 
	3.843255935584034333 12.19607864045543622 6.000000000492100583 
	5.720830775594905937 11.52821264533084467 6.000000000423310276 
	8.274110423682602189 10.0061890291009945 5.999999999990951238 
	9.756034269841782347 8.669550494578201594 6.000000000251269228 
	11.27179801751276678 6.633846450863517319 5.999999999954277463 
	11.99460596971991322 5.26581557958867652 6.000000000028938629 
	12.67789144657850464 3.287776611888830747 5.999999999992240873 
	12.92182722023149211 2.206577370730878229 6.000000000003813838 
	13.04449764524066424 1.107182702105448779 6.000000000000166089 
	13.07526077778263485 0.5535941925554351828 5.999999999999997335 
	13.07526077778263307 7.269951610279256204e-15 5.999999999999996447 
	1000 
	
	cone 9.992007221626371393e-16 2.164934898019054859e-15 3.000000000000000444 0.1736481776669306087 7.39599788199790193e-16 0.9848077530122080203 -1.582067810090845309e-15 9.5 -6.855627177060339271e-15 0.9848077530122081313 I I 0 1 9.5 forward I I I I 
	plane 9.992007221626371393e-16 2.164934898019054859e-15 3.000000000000000444 3.330669073875456309e-16 7.216449660063515541e-16 1 10 1.665334536937729289e-15 -3.330669073875457394e-15 forward_v I I I I 
	nubs 3 periodic 18 
	-3.141592653589793116 3 -2.754927630439996111 3 -2.369742900161643906 3 -1.983481817761101329 3 -1.594314667125168672 3 
	-1.202076185903043548 3 -0.8082718448860108928 3 -0.4153083170091020904 3 -0.02521872711073092077 3 0.3616196552989605628 3 
	0.74682324489979246 3 1.132944168639231641 3 1.521897692372284006 3 1.913967055352492785 3 2.307738945117721485 3 
	2.700830325649768326 3 2.920555055118569499 3 3.141592653589793116 3 
	0.5499914174335227557 -1.570796326794896558 
	0.5499914174335227557 -1.700390474343806524 
	0.5441829416792282048 -1.829999349547218879 
	0.5330048157865512337 -1.959393106954861796 
	0.5218694837828592448 -2.088291498489637021 
	0.5054131992092267822 -2.217007011245237358 
	0.4848569447896440288 -2.345418328253916496 
	0.4642432484043508834 -2.474188475150467248 
	0.4395176275491170514 -2.602687512459723518 
	0.4124962712758355465 -2.73095160023500183 
	0.3852716175213402594 -2.860180693826834375 
	0.355728520569095652 -2.989212500390133975 
	0.3260434446161459832 -3.118207945976445572 
	0.2961240922563136979 -3.248221431386676628 
	0.2660730104636991888 -3.378243858719095716 
	0.2381368513467938541 -3.50844746339172131 
	0.2100891679647297339 -3.639170855386268055 
	0.1841866922262056228 -3.770121611597489153 
	0.1624025885671831482 -3.90135351308245637 
	0.140664996230395023 -4.032305220837494097 
	0.1230405663522254334 -4.163575631746503802 
	0.1108875711871752934 -4.295047576538301826 
	0.0988234569280619507 -4.425558001523691942 
	0.09215815636287331969 -4.556299818145569169 
	0.09140378579059627029 -4.687040837882189948 
	0.09065570253107337051 -4.816692194645348479 
	0.09571971529675092627 -4.946372659422199725 
	0.1062127705438320469 -5.075848490572672844 
	0.1166614817649816171 -5.204777152240202653 
	0.1324861104676063328 -5.333533346194168523 
	0.1525113460866278636 -5.461986479124267824 
	0.1725842703377465648 -5.590745513783294207 
	0.1968669681927344428 -5.719234464235000814 
	0.223575285158189363 -5.847479273565609148 
	0.2504795355056871342 -5.976664892429595533 
	0.279833186743687734 -6.105643567021362905 
	0.3094750197963738181 -6.234570882622413102 
	0.3393543084347473426 -6.364531012597080206 
	0.3695139664767079779 -6.494484684334285163 
	0.3977019062702771279 -6.624607684932723117 
	0.4260122497174964051 -6.755295733236449607 
	0.4523203843074660169 -6.886199585563113068 
	0.4746244896402673774 -7.017383518100974271 
	0.496890049434366432 -7.148340741014158617 
	0.515152864353342399 -7.279616274687791488 
	0.5280059517901602995 -7.411103376915840535 
	0.5351903910828030853 -7.484600200800890057 
	0.5406978836861239257 -7.558167138619885428 
	0.5443926234229063965 -7.631771365921867556 
	0.5481094394607232134 -7.705815383085944603 
	0.5499914174335227557 -7.779898959216907883 
	0.5499914174335227557 -7.85398163397448279 
	
	nullbs 
	I I 
	0 
	0 
	0 
	3.000000000000000444 3.000000000000000444 } I I 3.000000000000000444 3.000000000000000444 
	no_radius 
	F 0 F 1 
	I I 
	1 0.001000000000000000021 0.007702898464286494357 
	1 
	full nubs 3 3 open periodic none none 5 14 
	0 3 0.25 1 0.5 1 0.75 1 1 3 
	-3.141592653589793116 3 -2.948257524768273186 2 -2.638921318653841386 2 -2.236784250705079913 2 -1.811472799174654869 2 
	-1.344429193739502537 2 -0.810142868572408692 2 -0.3129737478362710767 2 0.2663364847779773337 2 0.8078123441635264301 2 
	1.394628644138415252 2 1.956128887520749426 2 2.554432157715028406 2 3.141592653589793116 3 
	13.07526077778263129 5.105016712260202528e-15 2.999999999999996003 
	12.63892846478404941 5.005635136694442371e-15 2.999999999999996003 
	11.76657576003287353 4.946529661685863199e-15 3.193428399986317778 
	10.70302809807207112 5.293175293377923515e-15 4.009460433388175815 
	10.08407653823302397 6.01030188706742252e-15 5.198552892103252887 
	10.04506920773660816 6.645621294455742639e-15 6.091241088270034965 
	10.12083751874600779 6.972972051711940784e-15 6.520944533000788468 
	13.07526077778263129 -0.8070211076667608285 2.999999999999996447 
	12.63892846478404941 -0.7787476678435701904 2.999999999999996447 
	11.76657576003287353 -0.7222210000547921727 3.193428399986318222 
	10.70302809807207112 -0.6533052908035232864 4.009460433388175815 
	10.08407653823302397 -0.6131984979778528633 5.198552892103252887 
	10.04506920773660816 -0.6106709028889751867 6.091241088270034965 
	10.12083751874600779 -0.6155805341906473993 6.520944533000788468 
	12.99656778361716292 -1.614071596814532494 2.999999999999997335 
	12.5632679934193412 -1.557524785171761073 2.999999999999997335 
	11.69697736418521572 -1.444471581374757951 3.193184958993547262 
	10.64051600496492966 -1.30663895905666072 4.008256535867813497 
	10.02506526923828467 -1.226421954097441258 5.196160029844303807 
	9.985469428363764166 -1.221363140301214623 6.088233977500816962 
	10.06023774705048446 -1.231180466844155053 6.517754209711378088 
	12.59124213450858853 -3.672993550853396183 2.999999999999998668 
	12.17347691451269931 -3.54474476836351915 2.999999999999998668 
	11.33824046538600783 -3.288337721846729345 3.191933379897133882 
	10.31816811214246243 -2.975290242786740258 4.002063370246617069 
	9.720879573982639243 -2.792198198009024246 5.183837805499953433 
	9.678508884442081239 -2.779479144438941951 6.072728507659205022 
	9.748283810674703176 -2.801058116982288126 6.501290257521627147 
	12.14334301478804079 -4.900553527594411207 3 
	11.74271481462664113 -4.730007770406901457 3 
	10.94173600306942973 -4.389035086313183953 3.190550979124186615 
	9.961839319915883451 -3.972156357180015362 3.995221549400888694 
	9.384671103263780623 -3.727140555049880177 5.170220495623646606 
	9.339326535707614951 -3.708574606801192886 6.055586368585662349 
	9.40363913831733278 -3.736360577510162706 6.483083712573359136 
	10.7064114931683747 -7.499830335565311756 3.00000000000000222 
	10.35971814031237948 -7.241963162558727518 3.00000000000000222 
	9.666560378277452514 -6.726400395276169064 3.186146351909732388 
	8.814167687330755285 -6.092905145048815641 3.97337725375878259 
	8.303079042904409235 -5.714094821447980088 5.126588985424717748 
	8.251284501633552537 -5.677009925993344197 6.000415267068358816 
	8.299983086401747201 -5.714028961786718597 6.424318255256244115 
	9.594496798769569068 -8.80219382339015155 3.000000000000003553 
	9.288952160940096903 -8.502432522675002602 3.000000000000003109 
	8.678056497532136149 -7.903101964106974187 3.182754131550718846 
	7.923563897697741609 -7.163758781620300553 3.956528198840359334 
	7.464504365101358729 -6.715690337172618207 5.092846531201415949 
	7.409485813228630313 -6.664230577479966833 5.957609309350095472 
	7.447187484594909535 -6.702629463390822551 6.378628568015585643 
	6.872707583099366246 -10.92898396915324 3.000000000000006217 
	6.664093081539946617 -10.56548362255673013 3.000000000000006217 
	6.246984060971174202 -9.838695425708310793 3.174579963405212091 
	5.726784631258602154 -8.933696634325631436 3.915768377027965652 
	5.399942631262257819 -8.367962212491287133 5.010668242710475617 
	5.347709833912301924 -8.281073459684540339 5.852477534082137112 
	5.365230631743288292 -8.313913952146922526 6.265808859320224578 
	5.239154870011172527 -11.7200185309958389 3.000000000000007105 
	5.086883322773662286 -11.33599606849663388 3.000000000000007105 
	4.782422192756529356 -10.56816259128061652 3.169736788005830253 
	4.400253902180521592 -9.60649005459501204 3.891540190239425101 
	4.155106482003008139 -8.993967988377162825 4.961550486453556452 
	4.109701040805930461 -8.885831540966869113 5.789212599355526123 
	4.118365707342018567 -8.911312887246504388 6.197625369064228451 
	1.620194104210906927 -12.60328812787489916 3.000000000000008882 
	1.586850210073134981 -12.20326467409260118 3.000000000000008882 
	1.520176409572921772 -11.40341166164423647 3.159255166290988015 
	1.434701356338216049 -10.38975976346098129 3.838868532938155553 
	1.376229387187601905 -9.719828490006815258 4.853943912886465206 
	1.360957170470297184 -9.571710798515848495 5.649288710050464069 
	1.359819945092910709 -9.578054285002568946 6.045910989331789942 
	-0.3815635892126029161 -12.61751166002453139 3.00000000000000977 
	-0.3524140132422088345 -12.22459352729259408 3.000000000000009326 
	-0.2941296510204545189 -11.43893357810867784 3.15359890647696961 
	-0.2206252523977756119 -10.43652451245312207 3.810310797445050746 
	-0.17279021542541112 -9.760275740730024907 4.795135116833305844 
	-0.1631257708195362199 -9.59430842043092369 5.572074305881105971 
	-0.1642496948643948629 -9.58876596014011362 5.961681697143590419 
	-4.45613284355003092 -11.68427465500944074 3.000000000000010658 
	-4.306218136045151468 -11.33363421414767203 3.00000000000000977 
	-4.006448889423991133 -10.63248819948523227 3.142419496090474329 
	-3.620406595316776777 -9.726605475930309552 3.753624535581387534 
	-3.352688977286347516 -9.092426013827548559 4.677550935493860251 
	-3.278359547594710044 -8.909491066167266382 5.416317677302479261 
	-3.269865048279836373 -8.884357629667082534 5.790828981348328242 
	-6.492287533776176289 -10.59580100069999631 3.000000000000010658 
	-6.286096772801253785 -10.28403910819306155 3.00000000000000977 
	-5.87379007369217554 -9.660626055585213479 3.137049112040652954 
	-5.338658281978777786 -8.850145025979403002 3.726238263826056052 
	-4.959089096473030978 -8.272515160224747532 4.620201432962353749 
	-4.843884776007310933 -8.094028781276161766 5.339479851607039862 
	-4.824634138042419806 -8.062389882506508343 5.705947711862055627 
	-9.619326708040970786 -7.636233188397358873 3.000000000000009326 
	-9.330086153225925827 -7.418005541061099883 3.000000000000008882 
	-8.751697706146268629 -6.981618677297554143 3.129011859990236122 
	-7.994067376551350357 -6.409159768934448387 3.685135755797061208 
	-7.442563029814017739 -5.990762703057795235 4.533718446685838011 
	-7.258943124991002804 -5.849572097061765064 5.222942714740929304 
	-7.21896722956285597 -5.817848100513458576 5.57675186054501637 
	-10.76359365512271005 -5.828565720237777192 3.000000000000007994 
	-10.44564858489206038 -5.663633729646485371 3.000000000000007994 
	-9.809855234194811757 -5.333819470686689712 3.126174991407475012 
	-8.974021475529351477 -4.899941433121817624 3.670568173538732992 
	-8.359491731184835572 -4.58034668558258673 4.502857246083767251 
	-8.147996765086695348 -4.46968850044012278 5.181018534774129769 
	-8.098329113355845266 -4.443361187871111895 5.530041950560926622 
	-12.15405014692134422 -1.555397488133033246 3.000000000000005329 
	-11.80148716739371295 -1.512308019139710025 3.000000000000005329 
	-11.09646281046120286 -1.426140902627651696 3.122746954324617796 
	-10.16615874436956624 -1.312080515258159608 3.652957098232554767 
	-9.475176383170419214 -1.226636762049755136 4.465520737539127261 
	-9.229521430781872482 -1.195454430868358564 5.130252216223697204 
	-9.16782973488662023 -1.187225832870543618 5.473448771015936742 
	-12.21314621445402793 0.9637142883269612659 3.000000000000003553 
	-11.85917197620733887 0.9371415182549027723 3.000000000000003553 
	-11.1513252337654567 0.8840031119260282066 3.122605196007344208 
	-10.2171250335407322 0.8135673050459639732 3.652226760093677527 
	-9.522900924061559635 0.7606100988018887898 4.463965098704998802 
	-9.2757048592015785 0.7410704490185887616 5.128125281364933841 
	-9.213433303386205253 0.7358114526371349884 5.471069679399213292 
	-10.97534583194226876 5.475633296946773143 3 
	-10.65208614455531055 5.32102033047716283 3 
	-10.00566434398272619 5.011840585110293844 3.125650138396898647 
	-9.155359185733292549 4.604852909652617399 3.667873285893731961 
	-8.529181086468547335 4.304550615960345716 4.497149098438192105 
	-8.312547317637982047 4.199996019209300435 5.17326552627615488 
	-8.261097420073934217 4.174828915141247876 5.521404772642510395 
	-9.77112358253448221 7.485315941055504574 2.999999999999998224 
	-9.477869315031631103 7.271821330035711739 2.999999999999998224 
	-8.891454282090627714 6.844898451394190175 3.128622786057649208 
	-8.123056710530946134 6.2845126309642243 3.683145387870984777 
	-7.563203950705043255 5.874251214638026575 4.529528298148817633 
	-7.376231966597799783 5.735037487672597578 5.217292800604852232 
	-7.335227237298029834 5.703361665386790236 5.570485752125671652 
	-6.357930223747251475 10.73072347289687656 2.999999999999994671 
	-6.155288751126409608 10.41473661881807011 2.999999999999994671 
	-5.750079890569164576 9.782875497060574688 3.137393285899940931 
	-5.224472096553684608 8.961612288812267124 3.727999058118963038 
	-4.852292586551606668 8.37670621643714064 4.623908698871938228 
	-4.740060970911051719 8.196439232905149197 5.344479329440100734 
	-4.7217251848649191 8.164748000179203657 5.711492905673898335 
	-4.077910053468784213 11.88029640587503621 2.999999999999993339 
	-3.938499519528852577 11.52253960603951199 2.999999999999993339 
	-3.659735878618743499 10.80716547037892106 3.143420930425827819 
	-3.301497255808359288 9.883911225362027153 3.75872989508324773 
	-3.054584936084662861 9.23962708776765318 4.688236761725690371 
	-2.987791844065186275 9.056157166807766501 5.430625750785171846 
	-2.981245192126464882 9.032376252052063847 5.806628396150436799 
	0.6423473394475737175 12.71581812477952589 2.999999999999991118 
	0.6402719636695417549 12.31624750863266549 2.999999999999991562 
	0.6361196517377023518 11.51729207996780602 3.156453374180760552 
	0.6295833804047673565 10.50109499649930278 3.824750489408537124 
	0.6226523906651858509 9.821994739229500837 4.82496831163241513 
	0.6179721290800053168 9.662923970523285888 5.611402143019103228 
	0.6157419481778174664 9.662888746721595368 6.004691248313157814 
	3.063728878924554255 12.46320172482390909 2.99999999999999023 
	2.984242674553565511 12.06224738350986314 2.999999999999991118 
	2.825307695029830146 11.26054377158520836 3.163382879164955419 
	2.623465848806958434 10.2495068888459322 3.859664654625081681 
	2.489230253603869958 9.591372310343230012 4.896615970893389402 
	2.458595223778389016 9.457841159007951859 5.705072119674875708 
	2.459191230894152813 9.472738941733510387 6.106596298201788287 
	7.553552955142666114 10.65214174681864279 2.99999999999999023 
	7.322092768968992083 10.29558892493768418 2.99999999999999023 
	6.859306609343663652 9.582696371150415615 3.176569962434900418 
	6.282591137419077043 8.697070895520182532 3.925748431971902264 
	5.9211537418691087 8.147700364804986606 5.030988293886999863 
	5.864510552716462044 8.068633118339008092 5.878791555018939796 
	5.884684236803145119 8.104346151282458166 6.294266582303604807 
	9.579251701707990563 9.009533592492097398 2.999999999999991118 
	9.274320019790778247 8.702311753223606061 2.999999999999991118 
	8.664649477186745941 8.088066002855692105 3.182707660261916427 
	7.911540139150103457 7.330747006079483263 3.9562999730888877 
	7.453067632016195709 6.872643302700715218 5.092398108372808707 
	7.397816069702139785 6.82110342269339931 5.957053322872213563 
	7.435260811317965235 6.861120293881782572 6.378043440368919903 
	12.33130526263581395 4.896551025447370975 2.999999999999992895 
	11.92397880438212532 4.725269319482308106 2.999999999999993339 
	11.10960851114127479 4.38282738923113957 3.191116402955038289 
	10.11351306975228681 3.965009889702459933 3.998041026693431199 
	9.527190885118930197 3.721208577661482053 5.175904967865012196 
	9.48164328839542847 3.705030988710829476 6.062858114807917254 
	9.547348796900211099 3.734312030583354591 6.490886638026963418 
	13.07526077778263129 2.450930240393419446 2.999999999999994227 
	12.63892846478404941 2.365063553631100657 2.999999999999994227 
	11.76657576003287353 2.19339156369673649 3.193428399986316002 
	10.70302809807207112 1.984093945285696048 4.009460433388174039 
	10.08407653823302397 1.862289260813656089 5.198552892103251999 
	10.04506920773660816 1.854612932177457818 6.091241088270034076 
	10.12083751874600779 1.869523525856031654 6.52094453300078758 
	13.07526077778263129 8.155470628141312614e-15 2.999999999999996003 
	12.63892846478404941 7.949218458479897086e-15 2.999999999999996003 
	11.76657576003287353 7.676448193951103579e-15 3.193428399986317778 
	10.70302809807207112 7.762599777650977721e-15 4.009460433388175815 
	10.08407653823302397 8.32812696202364324e-15 5.198552892103252887 
	10.04506920773660816 8.953892328924820856e-15 6.091241088270034965 
	10.12083751874600779 9.299800970091911754e-15 6.520944533000788468 
	0.007702898464286494357 
	
	0 
	0 
	0 
	0 
	0 
	0 
	} I I I I #
DXID-attrib $-1 -1 $-1 $-1 $15 @10 ASM ENTITY @36 f498d19e-cee9-4759-b330-1f2ddd60b639 #
face $33 -1 $-1 $34 $35 $9 $-1 $36 forward single #
loop $-1 -1 $-1 $37 $38 $15 #
cone-surface $-1 -1 $-1 0.1078138141213416529 5.551115123125782702e-16 3.611442523930000981 0.1736481776669319688 -2.775557561562891351e-17 0.9848077530122079093 -6.705257638329320535 3.145098494875278039 1.182317834238992615 1 I I 0 1 7.5 forward I I I I #
loop $-1 -1 $-1 $-1 $39 $12 #
coedge $-1 -1 $-1 $27 $27 $40 $41 forward $16 $-1 #
DXID-attrib $-1 -1 $-1 $-1 $19 @10 ASM ENTITY @36 70903a93-de32-48c3-8a64-a6d9fa085b69 #
face $42 -1 $-1 $43 $44 $11 $-1 $45 forward single #
loop $-1 -1 $-1 $46 $47 $19 #
cone-surface $-1 -1 $-1 9.992007221626371393e-16 2.164934898019054859e-15 3.000000000000000444 0.1736481776669306087 7.39599788199790193e-16 0.9848077530122080203 -1.582067810090845309e-15 9.5 -6.855627177060339271e-15 0.9848077530122081313 I I 0 1 9.5 forward I I I I #
coedge $-1 -1 $-1 $48 $49 $50 $51 forward $20 $52 #
DXID-attrib $-1 -1 $-1 $-1 $23 @10 ASM ENTITY @36 5e8306d7-c25c-4ef9-ae73-246765149754 #
face $53 -1 $-1 $54 $55 $9 $-1 $56 forward single #
loop $-1 -1 $-1 $57 $58 $23 #
plane-surface $-1 -1 $-1 21.8138360224878376 -2.914335439641035919e-15 126.7124116504559765 0.1736481776669319688 -2.775557561562891351e-17 0.9848077530122079093 8.940343517772426196 -4.193464659833704644 -1.576423778985323265 forward_v I I I I #
loop $-1 -1 $-1 $-1 $40 $15 #
coedge $-1 -1 $-1 $38 $38 $59 $60 forward $24 $-1 #
coedge $-1 -1 $-1 $39 $39 $61 $62 forward $26 $-1 #
coedge $-1 -1 $-1 $40 $40 $27 $41 reversed $37 $-1 #
edge $-1 -1 $-1 $63 -3.141592653589793116 $63 3.141592653589793116 $40 $64 forward @7 unknown #
DXID-attrib $-1 -1 $-1 $-1 $29 @10 ASM ENTITY @36 36543c65-7ea9-4c37-bdbb-3c724441b9a4 #
face $65 -1 $-1 $66 $67 $11 $-1 $68 reversed single #
loop $-1 -1 $-1 $69 $70 $29 #
plane-surface $-1 -1 $-1 9.992007221626371393e-16 2.164934898019054859e-15 3.000000000000000444 3.330669073875456309e-16 7.216449660063515541e-16 1 10 1.665334536937729289e-15 -3.330669073875457394e-15 forward_v I I I I #
loop $-1 -1 $-1 $-1 $71 $19 #
coedge $-1 -1 $-1 $47 $47 $72 $73 reversed $30 $-1 #
coedge $-1 -1 $-1 $50 $32 $71 $74 forward $20 $75 #
coedge $-1 -1 $-1 $32 $50 $76 $77 forward $20 $78 #
coedge $-1 -1 $-1 $49 $48 $32 $51 reversed $20 $79 #
edge $-1 -1 $-1 $80 7.822562072633724311e-32 $81 1.745329251994329534 $32 $82 forward @7 tangent #
pcurve $-1 -1 $-1 0 forward { exppc nubs 1 open 2 
	7.822562072633724311e-32 1 1.745329251994329534 1 
	0 -3.141592653589793116 
	1 -3.141592653589793116 
	0 
	spline forward { ref 0 } I I I I 
	} 0 0 #
DXID-attrib $-1 -1 $-1 $-1 $34 @10 ASM ENTITY @36 90a4fee4-d99c-4d1a-9d0c-27e9e7eb11a8 #
face $83 -1 $-1 $84 $85 $9 $-1 $86 forward single #
loop $-1 -1 $-1 $87 $88 $34 #
cone-surface $-1 -1 $-1 21.8138360224878376 -2.914335439641035919e-15 126.7124116504559765 0.1736481776669319688 -2.775557561562891351e-17 0.9848077530122079093 1.788068703554485328 -0.8386929319667408844 -0.3152847557970647197 1 I I 0 1 2 forward I I I I #
loop $-1 -1 $-1 $-1 $61 $23 #
coedge $-1 -1 $-1 $58 $58 $89 $90 forward $35 $-1 #
coedge $-1 -1 $-1 $59 $59 $38 $60 reversed $91 $-1 #
edge $92 -1 $-1 $93 0 $93 6.283185307179586232 $38 $94 forward @7 unknown #
coedge $-1 -1 $-1 $61 $61 $39 $62 reversed $57 $-1 #
edge $-1 -1 $-1 $95 -3.141592653589793116 $95 3.141592653589793116 $61 $96 forward @7 unknown #
vertex $-1 -1 $-1 $41 $97 #
ellipse-curve $-1 -1 $-1 20.94559513415318008 -2.775557561562891351e-15 121.788372885394935 0.1736481776669319688 -2.775557561562891351e-17 0.9848077530122079093 6.705257638329320535 -3.145098494875278039 -1.182317834238992615 1 I I #
DXID-attrib $-1 -1 $-1 $-1 $43 @10 ASM ENTITY @36 97908c43-f7ca-4978-b0aa-69ff98bc11e9 #
face $98 -1 $-1 $99 $100 $11 $-1 $101 forward single #
loop $-1 -1 $-1 $102 $103 $43 #
cone-surface $-1 -1 $-1 9.992007221626371393e-16 2.164934898019054859e-15 3.000000000000000444 0.1736481776669306087 7.39599788199790193e-16 0.9848077530122080203 -1.332267629550185482e-15 8 -5.773159728050812432e-15 0.9848077530122081313 I I 0 1 8 forward I I I I #
loop $-1 -1 $-1 $104 $105 $29 #
coedge $-1 -1 $-1 $70 $70 $106 $107 forward $44 $-1 #
coedge $-1 -1 $-1 $71 $71 $48 $74 reversed $46 $-1 #
coedge $-1 -1 $-1 $72 $72 $47 $73 forward $108 $-1 #
edge $109 -1 $-1 $110 0 $110 6.283185307179586232 $47 $111 forward @7 unknown #
edge $-1 -1 $-1 $81 -3.141592653589793116 $81 3.141592653589793116 $71 $112 forward @7 tangent #
pcurve $-1 -1 $-1 0 forward { exppc nubs 1 periodic 2 
	-3.141592653589793116 1 3.141592653589793116 1 
	1 -3.141592653589793116 
	1 3.141592653589793116 
	0 
	spline forward { ref 0 } I I I I 
	} 0 0 #
coedge $-1 -1 $-1 $76 $76 $49 $77 reversed $113 $-1 #
edge $-1 -1 $-1 $80 -3.141592653589793116 $80 3.141592653589793116 $76 $114 forward @7 tangent #
pcurve $-1 -1 $-1 0 reversed { exppc nubs 1 periodic 2 
	-3.141592653589793116 1 3.141592653589793116 1 
	0 -3.141592653589793116 
	0 3.141592653589793116 
	0 
	spline forward { ref 0 } I I I I 
	} 0 0 #
pcurve $-1 -1 $-1 0 reversed { ref 2 } 0 6.283185307179586232 #
vertex $-1 -1 $-1 $51 $115 #
vertex $-1 -1 $-1 $51 $116 #
ellipse-curve $-1 -1 $-1 13.07526077778263307 8.450228424403003023e-15 5.999999999999996447 -4.483709547769397698e-16 1 -7.216449660063513568e-16 -9.992007221626371393e-16 -2.164934898019054859e-15 -3.000000000000000444 1 F 7.822562072633724311e-32 F 1.745329251994329534 #
DXID-attrib $-1 -1 $-1 $-1 $54 @10 ASM ENTITY @36 dd8aa4f7-e4e1-44d6-ba9c-4454b5db9c56 #
face $117 -1 $-1 $-1 $91 $9 $-1 $118 reversed single #
loop $-1 -1 $-1 $-1 $119 $54 #
plane-surface $-1 -1 $-1 22.68207691082249866 -3.053113317719180486e-15 131.6364504155170323 0.1736481776669319688 -2.775557561562891351e-17 0.9848077530122079093 8.940343517772426196 -4.193464659833704644 -1.576423778985323265 forward_v I I I I #
loop $-1 -1 $-1 $-1 $89 $34 #
coedge $-1 -1 $-1 $88 $88 $119 $120 reversed $55 $-1 #
coedge $-1 -1 $-1 $89 $89 $58 $90 reversed $87 $-1 #
edge $-1 -1 $-1 $121 0 $121 6.283185307179586232 $58 $122 forward @7 unknown #
loop $-1 -1 $-1 $-1 $59 $84 #
DXID-attrib $-1 -1 $-1 $-1 $60 @10 ASM ENTITY @36 82a4e1bd-53b9-4e05-bc7e-c604e59c393f #
vertex $-1 -1 $-1 $60 $123 #
ellipse-curve $-1 -1 $-1 0.1078138141213416529 5.551115123125782702e-16 3.611442523930000981 0.1736481776669319688 -2.775557561562891351e-17 0.9848077530122079093 -6.705257638329320535 3.145098494875278039 1.182317834238992615 1 I I #
vertex $-1 -1 $-1 $62 $124 #
ellipse-curve $-1 -1 $-1 21.8138360224878376 -2.914335439641035919e-15 126.7124116504559765 -0.1736481776669319688 2.775557561562891351e-17 -0.9848077530122079093 2.235085879443106549 -1.048366164958426161 -0.3941059447463308163 1 I I #
point $-1 -1 $-1 14.24033749582385688 3.145098494875274042 122.9706907196339358 #
DXID-attrib $-1 -1 $-1 $-1 $66 @10 ASM ENTITY @36 966be927-9e67-45dc-923d-b47bd44dd529 #
face $125 -1 $-1 $126 $127 $11 $-1 $128 forward single #
loop $-1 -1 $-1 $-1 $129 $66 #
plane-surface $-1 -1 $-1 9.992007221626371393e-16 2.164934898019054859e-15 3.000000000000000444 3.330669073875456309e-16 7.216449660063515541e-16 1 10 1.665334536937729289e-15 -3.330669073875457394e-15 forward_v I I I I #
loop $-1 -1 $-1 $-1 $130 $43 #
coedge $-1 -1 $-1 $103 $103 $131 $132 reversed $67 $-1 #
loop $-1 -1 $-1 $133 $134 $29 #
coedge $-1 -1 $-1 $105 $105 $135 $136 forward $69 $-1 #
coedge $-1 -1 $-1 $106 $106 $70 $107 reversed $137 $-1 #
edge $138 -1 $-1 $139 -3.141592653589793116 $139 3.141592653589793116 $106 $140 forward @7 unknown #
loop $-1 -1 $-1 $-1 $72 $99 #
DXID-attrib $-1 -1 $-1 $-1 $73 @10 ASM ENTITY @36 9a05b2be-8687-4f37-8354-5f21454f7562 #
vertex $-1 -1 $-1 $73 $141 #
ellipse-curve $-1 -1 $-1 8.682408883346528938 3.914492430800856431e-14 52.24038765061039413 3.330669073875456309e-16 7.216449660063515541e-16 1 9.5 1.582067810090842943e-15 -3.164135620181684307e-15 1 I I #
intcurve-curve $-1 -1 $-1 forward { bldcur full nubs 3 periodic 14 
	-3.141592653589793116 3 -2.948257524768273186 2 -2.638921318653841386 2 -2.236784250705079913 2 -1.811472799174654869 2 
	-1.344429193739502537 2 -0.810142868572408692 2 -0.3129737478362710767 2 0.2663364847779773337 2 0.8078123441635264301 2 
	1.394628644138415252 2 1.956128887520749426 2 2.554432157715028406 2 3.141592653589793116 3 
	10.12083751874600779 6.972972051711940784e-15 6.520944533000788468 
	10.12083751874600779 -0.6155805341906473993 6.520944533000788468 
	10.06023774705048446 -1.231180466844155053 6.517754209711378088 
	9.748283810674703176 -2.801058116982288126 6.501290257521627147 
	9.40363913831733278 -3.736360577510162706 6.483083712573359136 
	8.299983086401747201 -5.714028961786718597 6.424318255256244115 
	7.447187484594909535 -6.702629463390822551 6.378628568015585643 
	5.365230631743288292 -8.313913952146922526 6.265808859320224578 
	4.118365707342018567 -8.911312887246504388 6.197625369064228451 
	1.359819945092910709 -9.578054285002568946 6.045910989331789942 
	-0.1642496948643948629 -9.58876596014011362 5.961681697143590419 
	-3.269865048279836373 -8.884357629667082534 5.790828981348328242 
	-4.824634138042419806 -8.062389882506508343 5.705947711862055627 
	-7.21896722956285597 -5.817848100513458576 5.57675186054501637 
	-8.098329113355845266 -4.443361187871111895 5.530041950560926622 
	-9.16782973488662023 -1.187225832870543618 5.473448771015936742 
	-9.213433303386205253 0.7358114526371349884 5.471069679399213292 
	-8.261097420073934217 4.174828915141247876 5.521404772642510395 
	-7.335227237298029834 5.703361665386790236 5.570485752125671652 
	-4.7217251848649191 8.164748000179203657 5.711492905673898335 
	-2.981245192126464882 9.032376252052063847 5.806628396150436799 
	0.6157419481778174664 9.662888746721595368 6.004691248313157814 
	2.459191230894152813 9.472738941733510387 6.106596298201788287 
	5.884684236803145119 8.104346151282458166 6.294266582303604807 
	7.435260811317965235 6.861120293881782572 6.378043440368919903 
	9.547348796900211099 3.734312030583354591 6.490886638026963418 
	10.12083751874600779 1.869523525856031654 6.52094453300078758 
	10.12083751874600779 9.299800970091911754e-15 6.520944533000788468 
	0.007702898464286494357 
	
	spline forward { ref 0 } I I I I 
	null_surface 
	nubs 1 periodic 2 
	-3.141592653589793116 1 3.141592653589793116 1 
	1 -3.141592653589793116 
	1 3.141592653589793116 
	
	nullbs 
	I I 
	0 
	0 
	0 
	surf1 } I I #
loop $-1 -1 $-1 $-1 $76 $29 #
intcurve-curve $-1 -1 $-1 reversed { bldcur full nubs 3 periodic 14 
	-3.141592653589793116 3 -2.948257524768273186 2 -2.638921318653841386 2 -2.236784250705079913 2 -1.811472799174654869 2 
	-1.344429193739502537 2 -0.810142868572408692 2 -0.3129737478362710767 2 0.2663364847779773337 2 0.8078123441635264301 2 
	1.394628644138415252 2 1.956128887520749426 2 2.554432157715028406 2 3.141592653589793116 3 
	13.07526077778263129 5.105016712260202528e-15 2.999999999999996003 
	13.07526077778263129 -0.8070211076667608285 2.999999999999996447 
	12.99656778361716292 -1.614071596814532494 2.999999999999997335 
	12.59124213450858853 -3.672993550853396183 2.999999999999998668 
	12.14334301478804079 -4.900553527594411207 3 
	10.7064114931683747 -7.499830335565311756 3.00000000000000222 
	9.594496798769569068 -8.80219382339015155 3.000000000000003553 
	6.872707583099366246 -10.92898396915324 3.000000000000006217 
	5.239154870011172527 -11.7200185309958389 3.000000000000007105 
	1.620194104210906927 -12.60328812787489916 3.000000000000008882 
	-0.3815635892126029161 -12.61751166002453139 3.00000000000000977 
	-4.45613284355003092 -11.68427465500944074 3.000000000000010658 
	-6.492287533776176289 -10.59580100069999631 3.000000000000010658 
	-9.619326708040970786 -7.636233188397358873 3.000000000000009326 
	-10.76359365512271005 -5.828565720237777192 3.000000000000007994 
	-12.15405014692134422 -1.555397488133033246 3.000000000000005329 
	-12.21314621445402793 0.9637142883269612659 3.000000000000003553 
	-10.97534583194226876 5.475633296946773143 3 
	-9.77112358253448221 7.485315941055504574 2.999999999999998224 
	-6.357930223747251475 10.73072347289687656 2.999999999999994671 
	-4.077910053468784213 11.88029640587503621 2.999999999999993339 
	0.6423473394475737175 12.71581812477952589 2.999999999999991118 
	3.063728878924554255 12.46320172482390909 2.99999999999999023 
	7.553552955142666114 10.65214174681864279 2.99999999999999023 
	9.579251701707990563 9.009533592492097398 2.999999999999991118 
	12.33130526263581395 4.896551025447370975 2.999999999999992895 
	13.07526077778263129 2.450930240393419446 2.999999999999994227 
	13.07526077778263129 8.155470628141312614e-15 2.999999999999996003 
	0.007702898464286494357 
	
	spline forward { ref 0 } I I I I 
	null_surface 
	nubs 1 periodic 2 
	-3.141592653589793116 1 3.141592653589793116 1 
	0 -3.141592653589793116 
	0 3.141592653589793116 
	
	nullbs 
	I I 
	0 
	0 
	0 
	surf1 } I I #
point $-1 -1 $-1 13.07526077778263129 5.452626257915081942e-15 2.999999999999996003 #
point $-1 -1 $-1 10.12083751874600779 7.501487846742105371e-15 6.520944533000788468 #
DXID-attrib $-1 -1 $-1 $-1 $84 @10 ASM ENTITY @36 afc6e8a2-2160-4fb2-9b93-aeca147e087f #
plane-surface $-1 -1 $-1 0.1078138141213416529 5.551115123125782702e-16 3.611442523930000981 0.1736481776669319688 -2.775557561562891351e-17 0.9848077530122079093 8.940343517772426196 -4.193464659833704644 -1.576423778985323265 forward_v I I I I #
coedge $-1 -1 $-1 $119 $119 $88 $120 forward $85 $-1 #
edge $142 -1 $-1 $143 0 $143 6.283185307179586232 $88 $144 forward @7 unknown #
vertex $-1 -1 $-1 $90 $145 #
ellipse-curve $-1 -1 $-1 21.8138360224878376 -2.914335439641035919e-15 126.7124116504559765 -0.1736481776669319688 2.775557561562891351e-17 -0.9848077530122079093 1.788068703554485328 -0.8386929319667408844 -0.3152847557970647197 1 I I #
point $-1 -1 $-1 -6.59744382420797848 3.145098494875278483 4.793760358168993818 #
point $-1 -1 $-1 19.57875014304473282 1.048366164958423497 127.1065175952023054 #
DXID-attrib $-1 -1 $-1 $-1 $99 @10 ASM ENTITY @36 a5079e1d-57a9-4c4e-b5f0-f92dde92fa9d #
face $146 -1 $-1 $147 $137 $11 $-1 $148 forward single #
loop $-1 -1 $-1 $108 $131 $99 #
plane-surface $-1 -1 $-1 8.682408883346528938 3.914492430800856431e-14 52.24038765061039413 3.330669073875456309e-16 7.216449660063515541e-16 1 10 1.665334536937729289e-15 -3.330669073875457394e-15 forward_v I I I I #
coedge $-1 -1 $-1 $129 $129 $130 $149 forward $100 $-1 #
coedge $-1 -1 $-1 $130 $130 $129 $149 reversed $102 $-1 #
coedge $-1 -1 $-1 $131 $131 $103 $132 forward $127 $-1 #
edge $-1 -1 $-1 $150 -3.141592653589793116 $150 3.141592653589793116 $131 $151 forward @7 unknown #
loop $-1 -1 $-1 $152 $153 $29 #
coedge $-1 -1 $-1 $134 $134 $154 $155 forward $104 $-1 #
coedge $-1 -1 $-1 $135 $135 $105 $136 reversed $156 $-1 #
edge $157 -1 $-1 $158 -3.141592653589793116 $158 3.141592653589793116 $135 $159 forward @7 unknown #
loop $-1 -1 $-1 $160 $106 $126 #
DXID-attrib $-1 -1 $-1 $-1 $107 @10 ASM ENTITY @36 e993d876-6e2a-4f18-b7c4-3ee45c67c3a4 #
vertex $-1 -1 $-1 $107 $161 #
ellipse-curve $-1 -1 $-1 -14.14213562373094923 -14.14213562373095101 3.000000000000015543 -3.330669073875456309e-16 -7.216449660063515541e-16 -1 3.124999999999999556 5.204170427930403534e-16 -1.040834085586080115e-15 1 I I #
point $-1 -1 $-1 18.18240888334653249 4.072699211809940607e-14 52.24038765061038703 #
DXID-attrib $-1 -1 $-1 $-1 $120 @10 ASM ENTITY @36 2b0dc0e1-5208-4dbf-a1d5-f21fd3531e14 #
vertex $-1 -1 $-1 $120 $162 #
ellipse-curve $-1 -1 $-1 22.68207691082249866 -3.053113317719180486e-15 131.6364504155170323 0.1736481776669319688 -2.775557561562891351e-17 0.9848077530122079093 1.788068703554485328 -0.8386929319667408844 -0.3152847557970647197 1 I I #
point $-1 -1 $-1 23.6019047260423207 -0.838692931966743882 126.3971268946589106 #
DXID-attrib $-1 -1 $-1 $-1 $126 @10 ASM ENTITY @36 65208179-2f60-475b-a57a-cc2ad1389f88 #
face $163 -1 $-1 $164 $156 $11 $-1 $165 forward single #
cone-surface $-1 -1 $-1 -14.14213562373094923 -14.14213562373095456 1.491587835749584153e-14 3.330669073875456309e-16 7.216449660063515541e-16 1 3.124999999999999556 5.204170427930403534e-16 -1.040834085586080115e-15 1 I I 0 -1 3.124999999999999556 forward I I I I #
edge $166 -1 $-1 $167 0 $167 6.283185307179586232 $130 $168 forward @7 unknown #
vertex $-1 -1 $-1 $132 $169 #
ellipse-curve $-1 -1 $-1 8.682408883346528938 3.914492430800856431e-14 52.24038765061039413 -3.330669073875456309e-16 -7.216449660063515541e-16 -1 -8.000000000000001776 -1.332267629550183904e-15 2.664535259100366231e-15 0.999999999999999889 I I #
loop $-1 -1 $-1 $113 $170 $29 #
coedge $-1 -1 $-1 $153 $153 $171 $172 forward $133 $-1 #
coedge $-1 -1 $-1 $154 $154 $134 $155 reversed $173 $-1 #
edge $174 -1 $-1 $175 -3.141592653589793116 $175 3.141592653589793116 $154 $176 forward @7 unknown #
loop $-1 -1 $-1 $177 $135 $147 #
DXID-attrib $-1 -1 $-1 $-1 $136 @10 ASM ENTITY @36 b3306ed4-b2ce-439e-89b5-d2c3b1d7de65 #
vertex $-1 -1 $-1 $136 $178 #
ellipse-curve $-1 -1 $-1 14.14213562373095456 -14.14213562373094746 3.000000000000006217 -3.330669073875456309e-16 -7.216449660063515541e-16 -1 3.125000000000000444 5.204170427930405506e-16 -1.04083408558608051e-15 1 I I #
loop $-1 -1 $-1 $-1 $179 $126 #
point $-1 -1 $-1 -17.26713562373095101 -14.14213562373095101 3.000000000000016431 #
point $-1 -1 $-1 24.47014561437698177 -0.838692931966743993 131.3211656597199521 #
DXID-attrib $-1 -1 $-1 $-1 $147 @10 ASM ENTITY @36 fe24acad-e6ff-4117-8919-ded0860e9cec #
face $180 -1 $-1 $181 $173 $11 $-1 $182 forward single #
cone-surface $-1 -1 $-1 14.14213562373095456 -14.14213562373094923 5.495323605393225533e-15 3.330669073875456309e-16 7.216449660063515541e-16 1 3.125000000000000444 5.204170427930405506e-16 -1.04083408558608051e-15 1 I I 0 -1 3.125000000000000444 forward I I I I #
DXID-attrib $-1 -1 $-1 $-1 $149 @10 ASM ENTITY @36 0a3d52ea-bd37-4689-9f18-ee806906249d #
vertex $-1 -1 $-1 $149 $183 #
ellipse-curve $-1 -1 $-1 9.992007221626371393e-16 2.164934898019054859e-15 3.000000000000000444 3.330669073875456309e-16 7.216449660063515541e-16 1 8 1.33226762955018351e-15 -2.664535259100365836e-15 1 I I #
point $-1 -1 $-1 16.68240888334653249 4.047719193755874585e-14 52.24038765061038703 #
coedge $-1 -1 $-1 $170 $170 $184 $185 forward $152 $-1 #
coedge $-1 -1 $-1 $171 $171 $153 $172 reversed $186 $-1 #
edge $187 -1 $-1 $188 -3.141592653589793116 $188 3.141592653589793116 $171 $189 forward @7 unknown #
loop $-1 -1 $-1 $190 $154 $164 #
DXID-attrib $-1 -1 $-1 $-1 $155 @10 ASM ENTITY @36 0cbff6f8-2ecc-4953-90cb-2c73cf691c32 #
vertex $-1 -1 $-1 $155 $191 #
ellipse-curve $-1 -1 $-1 14.14213562373094923 14.14213562373095634 2.999999999999985345 -3.330669073875456309e-16 -7.216449660063515541e-16 -1 3.125000000000000444 5.204170427930405506e-16 -1.04083408558608051e-15 1 I I #
loop $-1 -1 $-1 $-1 $192 $147 #
point $-1 -1 $-1 11.01713562373095101 -14.14213562373094746 3.000000000000007105 #
coedge $-1 -1 $-1 $179 $179 $193 $194 forward $160 $-1 #
DXID-attrib $-1 -1 $-1 $-1 $164 @10 ASM ENTITY @36 abfdcf68-c5a7-45ec-ad23-0a8049993843 #
face $195 -1 $-1 $196 $186 $11 $-1 $197 forward single #
cone-surface $-1 -1 $-1 14.14213562373094923 14.14213562373095456 -1.491587835749584153e-14 3.330669073875456309e-16 7.216449660063515541e-16 1 3.125000000000000444 5.204170427930405506e-16 -1.04083408558608051e-15 1 I I 0 -1 3.125000000000000444 forward I I I I #
point $-1 -1 $-1 8.000000000000001776 3.497202527569238369e-15 2.99999999999999778 #
coedge $-1 -1 $-1 $184 $184 $170 $185 reversed $198 $-1 #
edge $199 -1 $-1 $200 0 $200 6.283185307179586232 $184 $201 forward @7 unknown #
loop $-1 -1 $-1 $202 $171 $181 #
DXID-attrib $-1 -1 $-1 $-1 $172 @10 ASM ENTITY @36 5b79c5a7-8924-4b6f-a7eb-753d61a883aa #
vertex $-1 -1 $-1 $172 $203 #
ellipse-curve $-1 -1 $-1 -14.14213562373095456 14.14213562373095101 2.999999999999994671 -3.330669073875456309e-16 -7.216449660063515541e-16 -1 3.125000000000000444 5.204170427930405506e-16 -1.04083408558608051e-15 1 I I #
loop $-1 -1 $-1 $-1 $204 $164 #
point $-1 -1 $-1 11.01713562373094746 14.14213562373095634 2.999999999999986677 #
coedge $-1 -1 $-1 $192 $192 $205 $206 forward $177 $-1 #
coedge $-1 -1 $-1 $193 $193 $179 $194 reversed $207 $-1 #
edge $208 -1 $-1 $209 -3.141592653589793116 $209 3.141592653589793116 $179 $210 forward @7 unknown #
DXID-attrib $-1 -1 $-1 $-1 $181 @10 ASM ENTITY @36 e55ad3cb-8f34-4c54-b0e2-f2ca49878863 #
face $211 -1 $-1 $212 $198 $11 $-1 $213 forward single #
cone-surface $-1 -1 $-1 -14.14213562373095456 14.14213562373094923 -5.495323605393225533e-15 3.330669073875456309e-16 7.216449660063515541e-16 1 3.125000000000000444 5.204170427930405506e-16 -1.04083408558608051e-15 1 I I 0 -1 3.125000000000000444 forward I I I I #
loop $-1 -1 $-1 $214 $184 $196 #
DXID-attrib $-1 -1 $-1 $-1 $185 @10 ASM ENTITY @36 c6cc5c35-0f7a-4892-bb5e-0f09102f1a11 #
vertex $-1 -1 $-1 $185 $215 #
ellipse-curve $-1 -1 $-1 9.992007221626371393e-16 2.164934898019054859e-15 3.000000000000000444 3.330669073875456309e-16 7.216449660063515541e-16 1 -25 -4.163336342344322827e-15 8.326672684688644076e-15 1 I I #
loop $-1 -1 $-1 $-1 $216 $181 #
point $-1 -1 $-1 -17.26713562373095456 14.14213562373095101 2.999999999999996003 #
coedge $-1 -1 $-1 $204 $204 $217 $218 forward $190 $-1 #
coedge $-1 -1 $-1 $205 $205 $192 $206 reversed $219 $-1 #
edge $220 -1 $-1 $221 -3.141592653589793116 $221 3.141592653589793116 $192 $222 forward @7 unknown #
loop $-1 -1 $-1 $-1 $193 $212 #
DXID-attrib $-1 -1 $-1 $-1 $194 @10 ASM ENTITY @36 9948b089-a932-4dc1-87ce-85523f590990 #
vertex $-1 -1 $-1 $194 $223 #
ellipse-curve $-1 -1 $-1 -14.14213562373094923 -14.14213562373095456 1.491587835749584153e-14 -3.330669073875456309e-16 -7.216449660063515541e-16 -1 3.124999999999999556 5.204170427930403534e-16 -1.040834085586080115e-15 1 I I #
DXID-attrib $-1 -1 $-1 $-1 $196 @10 ASM ENTITY @36 5616acfd-b627-403b-b854-cfb27b96affe #
face $224 -1 $-1 $-1 $225 $11 $-1 $226 reversed single #
cone-surface $-1 -1 $-1 0 0 0 3.330669073875456309e-16 7.216449660063515541e-16 1 -25 -4.163336342344322827e-15 8.326672684688644076e-15 1 I I 0 1 25 forward I I I I #
loop $-1 -1 $-1 $-1 $227 $196 #
point $-1 -1 $-1 -25 -1.998401444325268362e-15 3.000000000000008882 #
coedge $-1 -1 $-1 $216 $216 $228 $229 forward $202 $-1 #
coedge $-1 -1 $-1 $217 $217 $204 $218 reversed $230 $-1 #
edge $231 -1 $-1 $232 -3.141592653589793116 $232 3.141592653589793116 $204 $233 forward @7 unknown #
loop $-1 -1 $-1 $207 $205 $212 #
DXID-attrib $-1 -1 $-1 $-1 $206 @10 ASM ENTITY @36 519f4cc4-c156-4a09-9daa-dab923f2d39a #
vertex $-1 -1 $-1 $206 $234 #
ellipse-curve $-1 -1 $-1 14.14213562373095456 -14.14213562373094923 5.495323605393225533e-15 -3.330669073875456309e-16 -7.216449660063515541e-16 -1 3.125000000000000444 5.204170427930405506e-16 -1.04083408558608051e-15 1 I I #
point $-1 -1 $-1 -17.26713562373095101 -14.14213562373095456 1.595671244308192263e-14 #
DXID-attrib $-1 -1 $-1 $-1 $212 @10 ASM ENTITY @36 711cbdaa-2f0a-4bea-a6a4-367389ff93f5 #
loop $-1 -1 $-1 $235 $236 $212 #
plane-surface $-1 -1 $-1 0 0 0 3.330669073875456309e-16 7.216449660063515541e-16 1 10 1.665334536937729289e-15 -3.330669073875457394e-15 forward_v I I I I #
coedge $-1 -1 $-1 $227 $227 $236 $237 forward $214 $-1 #
coedge $-1 -1 $-1 $228 $228 $216 $229 reversed $235 $-1 #
edge $238 -1 $-1 $239 -3.141592653589793116 $239 3.141592653589793116 $216 $240 forward @7 unknown #
loop $-1 -1 $-1 $219 $217 $212 #
DXID-attrib $-1 -1 $-1 $-1 $218 @10 ASM ENTITY @36 0e6e0a20-93a8-4e8c-93f3-799f99963daa #
vertex $-1 -1 $-1 $218 $241 #
ellipse-curve $-1 -1 $-1 14.14213562373094923 14.14213562373095456 -1.491587835749584153e-14 -3.330669073875456309e-16 -7.216449660063515541e-16 -1 3.125000000000000444 5.204170427930405506e-16 -1.04083408558608051e-15 1 I I #
point $-1 -1 $-1 11.01713562373095456 -14.14213562373094923 6.536157690979305845e-15 #
loop $-1 -1 $-1 $230 $228 $212 #
coedge $-1 -1 $-1 $236 $236 $227 $237 reversed $225 $-1 #
edge $242 -1 $-1 $243 0 $243 6.283185307179586232 $227 $244 forward @7 unknown #
DXID-attrib $-1 -1 $-1 $-1 $229 @10 ASM ENTITY @36 40cf9e0e-2c02-420f-9fec-f07fd32d3c1a #
vertex $-1 -1 $-1 $229 $245 #
ellipse-curve $-1 -1 $-1 -14.14213562373095456 14.14213562373094923 -5.495323605393225533e-15 -3.330669073875456309e-16 -7.216449660063515541e-16 -1 3.125000000000000444 5.204170427930405506e-16 -1.04083408558608051e-15 1 I I #
point $-1 -1 $-1 11.01713562373094923 14.14213562373095456 -1.387504427190976043e-14 #
DXID-attrib $-1 -1 $-1 $-1 $237 @10 ASM ENTITY @36 3cd14643-6503-46a5-bbc3-2ea985e1fdf4 #
vertex $-1 -1 $-1 $237 $246 #
ellipse-curve $-1 -1 $-1 0 0 0 3.330669073875456309e-16 7.216449660063515541e-16 1 -25 -4.163336342344322827e-15 8.326672684688644076e-15 1 I I #
point $-1 -1 $-1 -17.26713562373095456 14.14213562373094923 -4.45448951980714522e-15 #
point $-1 -1 $-1 -25 -4.163336342344322827e-15 8.326672684688644076e-15 #
End-of-ACIS-data 